<svg width="104" height="103" viewBox="0 0 104 103" fill="none" xmlns="http://www.w3.org/2000/svg">
<path d="M0.474123 102.283C0.796714 102.604 1.23475 102.783 1.68959 102.78C1.92428 102.776 2.15667 102.73 2.37454 102.643L61.9827 76.8541H62.1203C62.3213 76.7815 62.5071 76.6707 62.6676 76.5293C64.5857 74.5944 61.2809 69.4396 56.88 64.1657C58.0856 63.1505 59.3492 62.2072 60.6649 61.3402L58.7981 58.4636C57.3525 59.4222 55.9635 60.4627 54.6371 61.5803C52.411 59.0973 50.0992 56.7 48.1301 54.7309C45.6815 52.2823 42.5816 49.3025 39.4659 46.6483H39.4651C43.2263 42.219 46.041 37.0682 47.7365 31.5105L44.4999 30.415C42.9251 35.5353 40.3268 40.2834 36.8631 44.3708C32.2741 40.7748 28.0611 38.3943 26.3663 40.0898H26.3656C26.2433 40.232 26.1447 40.3941 26.0751 40.5691L25.835 40.4667L0.149458 100.4V100.399C-0.134913 101.035 -0.00649126 101.78 0.475122 102.283L0.474123 102.283ZM37.6492 58.6013V83.6371L32.5121 85.8632V52.9172C34.2245 54.8352 35.9369 56.8044 37.6492 58.6024V58.6013ZM56.7765 75.3825L49.6358 78.448V70.0573C51.8603 72.0319 54.2492 73.8138 56.7765 75.3825ZM46.2111 79.937L41.074 82.232V62.0945C42.5983 63.6188 44.3619 65.3136 46.2111 67.0259V79.937ZM29.0874 87.3691L23.9502 89.5952V53.4808L27.255 45.7407C27.7687 46.6313 28.3849 47.5731 29.0874 48.5494L29.0874 87.3691ZM20.5255 91.0674L15.3884 93.2935V73.6707L20.5255 61.4616V91.0674ZM45.714 57.0431C50.7257 61.7949 55.1986 67.0835 59.0537 72.8138C53.3234 68.9587 48.0348 64.4858 43.283 59.4741C38.2714 54.7223 33.7984 49.4337 29.9434 43.7034C35.6736 47.5585 40.9622 52.0314 45.714 57.0431ZM11.9636 81.4449V94.7501L4.95975 97.7803L11.9636 81.4449Z" fill="white"/>
<path d="M48.6591 27.8644C49.9205 22.0868 49.9671 16.1095 48.796 10.3125L45.3712 10.9806C46.4476 16.3135 46.4063 21.8114 45.252 27.1282L48.6591 27.8644Z" fill="white"/>
<path d="M64.2767 59.1489C72.2338 55.115 81.3147 53.8666 90.064 55.6042L90.7322 52.1795C81.2263 50.2875 71.3603 51.6444 62.7178 56.0324L64.2767 59.1489Z" fill="white"/>
<path d="M56.4857 5.1752H51.3486V8.59994H56.4857V13.7371H59.9105V8.59994H65.0476V5.1752H59.9105V0.0380859H56.4857V5.1752Z" fill="white"/>
<path d="M94.1576 37.71V42.8471H89.0205V46.2718H94.1576V51.4089H97.5824V46.2718H102.719V42.8471H97.5824V37.71H94.1576Z" fill="white"/>
<path d="M100.391 2.04175C100.516 1.38585 100.248 0.717729 99.706 0.329383C99.1808 -0.0536014 98.4844 -0.107125 97.908 0.192546L93.696 2.41863L89.4839 0.192546H89.4832C88.906 -0.10711 88.2096 -0.0536053 87.6852 0.329383C87.1424 0.717729 86.8756 1.38585 87.0002 2.04175L87.8052 6.73404L84.3804 10.0564V10.0557C83.9187 10.5128 83.7559 11.1909 83.9592 11.8078C84.1618 12.4247 84.6962 12.8734 85.3391 12.9667L90.048 13.6517L92.1373 17.9158C92.4232 18.5059 93.0218 18.8813 93.6784 18.8813C94.3343 18.8813 94.9337 18.5059 95.2196 17.9158L97.3425 13.7372L102.051 13.0522C102.691 12.9536 103.22 12.5026 103.42 11.8872C103.619 11.2711 103.454 10.596 102.993 10.1412L99.5685 6.8188L100.391 2.04175ZM95.9556 10.3979C95.4021 10.4782 94.9228 10.823 94.6713 11.3229L93.6951 13.2921L92.7365 11.3396C92.4858 10.829 91.998 10.4758 91.4346 10.3978L89.2775 10.0722L90.8354 8.59984C91.2383 8.20921 91.4233 7.64657 91.3323 7.09311L90.973 4.93592L92.9078 5.94653V5.94577C93.4063 6.20796 94.0018 6.20796 94.5002 5.94577L96.435 4.93515L96.0581 7.09235V7.09311C95.9672 7.64657 96.1529 8.20921 96.555 8.59984L98.113 10.1242L95.9556 10.3979Z" fill="white"/>
<path d="M61.6222 35.9977C61.6222 37.1093 61.2613 38.191 60.5947 39.08C59.9281 39.9691 58.9902 40.6181 57.9238 40.9292L58.8656 44.2172C60.6468 43.7019 62.2131 42.621 63.3278 41.1388C64.4424 39.6565 65.0463 37.8524 65.047 35.9978C65.0447 34.845 65.4308 33.7259 66.1417 32.8184C66.8535 31.9118 67.8488 31.2704 68.9686 30.9975C69.3677 30.9088 69.7751 30.863 70.1841 30.8607H71.8965C74.167 30.8607 76.3447 29.9586 77.951 28.3534C79.5564 26.7473 80.4583 24.5693 80.4583 22.2988H77.0336C77.0336 23.6611 76.4924 24.9684 75.5291 25.9314C74.5659 26.8944 73.2586 27.4358 71.8966 27.4358H70.1842C69.5038 27.4374 68.8258 27.5176 68.1638 27.6759C66.2985 28.1284 64.6389 29.1956 63.4525 30.7047C62.2669 32.2138 61.6217 34.0782 61.6224 35.9978L61.6222 35.9977Z" fill="white"/>
<path d="M49.6358 49.6965C49.6358 48.3343 50.177 47.027 51.1402 46.0639C52.1034 45.1009 53.4107 44.5595 54.7728 44.5595V41.1348C52.5023 41.1348 50.3245 42.0368 48.7182 43.6421C47.1129 45.2482 46.2109 47.4261 46.2109 49.6966L49.6358 49.6965Z" fill="white"/>
<path d="M99.2949 24.0117H102.72V27.4365H99.2949V24.0117Z" fill="white"/>
<path d="M73.6094 66.8203H77.0341V70.2451H73.6094V66.8203Z" fill="white"/>
<path d="M27.375 20.5869H30.7997V24.0117H27.375V20.5869Z" fill="white"/>
<path d="M70.1357 20.5335L70.2466 17.1104L73.6698 17.2212L73.5589 20.6444L70.1357 20.5335Z" fill="white"/>
<path d="M73.6094 5.17578H77.0341V8.60052H73.6094V5.17578Z" fill="white"/>
<path d="M75.3213 41.1348H78.746V44.5595H75.3213V41.1348Z" fill="white"/>
<path d="M85.5957 25.7236H89.0204V29.1484H85.5957V25.7236Z" fill="white"/>
<path d="M94.1572 63.3955H97.582V66.8203H94.1572V63.3955Z" fill="white"/>
<path d="M56.4854 25.7236H59.9101V29.1484H56.4854V25.7236Z" fill="white"/>
<path d="M32.5127 1.75098H35.9374V5.17572H32.5127V1.75098Z" fill="white"/>
</svg>
